<svg width="160" height="160" viewBox="0 0 160 160" xmlns="http://www.w3.org/2000/svg">
  <rect width="160" height="160" fill="#0d1117"/>
  <!-- Grid lines -->
  <g stroke="#1f1f1f" stroke-width="1">
    <!-- Vertical lines -->
    <line x1="20" y1="0" x2="20" y2="160"/>
    <line x1="40" y1="0" x2="40" y2="160"/>
    <line x1="60" y1="0" x2="60" y2="160"/>
    <line x1="80" y1="0" x2="80" y2="160"/>
    <line x1="100" y1="0" x2="100" y2="160"/>
    <line x1="120" y1="0" x2="120" y2="160"/>
    <line x1="140" y1="0" x2="140" y2="160"/>
    <!-- Horizontal lines -->
    <line x1="0" y1="20" x2="160" y2="20"/>
    <line x1="0" y1="40" x2="160" y2="40"/>
    <line x1="0" y1="60" x2="160" y2="60"/>
    <line x1="0" y1="80" x2="160" y2="80"/>
    <line x1="0" y1="100" x2="160" y2="100"/>
    <line x1="0" y1="120" x2="160" y2="120"/>
    <line x1="0" y1="140" x2="160" y2="140"/>
  </g>

  <!-- Dots with color shifts -->
  <g>
    <rect x="120" y="140" width="20" height="20" fill="#4690ff"/>
    <rect x="20" y="120" width="20" height="20" fill="#3e82f0"/>
    <rect x="0" y="100" width="20" height="20" fill="#4a90e2"/>
    <rect x="140" y="120" width="20" height="20" fill="#3f78dd"/>
    <rect x="80" y="140" width="20" height="20" fill="#4c96ff"/>
    <rect x="140" y="140" width="20" height="20" fill="#427de8"/>
    <rect x="20" y="40" width="20" height="20" fill="#3a7fe0"/>
    <rect x="140" y="0" width="20" height="20" fill="#5a9dfc"/>
    <rect x="0" y="160" width="20" height="20" fill="#448aff"/>
    <rect x="60" y="100" width="20" height="20" fill="#3779e5"/>
    <rect x="100" y="0" width="20" height="20" fill="#579eff"/>
    <rect x="0" y="0" width="20" height="20" fill="#3e85f2"/>
    <rect x="100" y="20" width="20" height="20" fill="#3b79e8"/>
    <rect x="40" y="0" width="20" height="20" fill="#4e8ffc"/>
    <rect x="80" y="100" width="20" height="20" fill="#4b88f2"/>
    <rect x="80" y="120" width="20" height="20" fill="#468aff"/>
    <rect x="80" y="140" width="20" height="20" fill="#4383ea"/>
    <rect x="100" y="160" width="20" height="20" fill="#498cff"/>
    <rect x="20" y="100" width="20" height="20" fill="#3f7dec"/>
    <rect x="120" y="160" width="20" height="20" fill="#5292ff"/>
    <rect x="60" y="120" width="20" height="20" fill="#3d81e0"/>
    <rect x="100" y="100" width="20" height="20" fill="#3a79dc"/>
    <rect x="60" y="80" width="20" height="20" fill="#4988f8"/>
    <rect x="40" y="160" width="20" height="20" fill="#457fff"/>
    <rect x="140" y="40" width="20" height="20" fill="#488bff"/>
    <rect x="20" y="140" width="20" height="20" fill="#3b84ff"/>
    <rect x="120" y="100" width="20" height="20" fill="#417ff3"/>
  </g>
</svg>
